<svg width="10" height="5" viewBox="0 0 10 5" fill="none" xmlns="http://www.w3.org/2000/svg"><mask id="path-1-inside-1_2638_2652" fill="#fff"><path d="M9.473.364a.667.667 0 00-.946 0L5.473 3.418a.667.667 0 01-.946 0L1.473.364a.667.667 0 10-.946.94l3.06 3.06a2 2 0 002.826 0l3.06-3.06a.667.667 0 000-.94z"/></mask><path d="M9.473.364a.667.667 0 00-.946 0L5.473 3.418a.667.667 0 01-.946 0L1.473.364a.667.667 0 10-.946.94l3.06 3.06a2 2 0 002.826 0l3.06-3.06a.667.667 0 000-.94z" fill="#111028"/><path d="M8.527.364L23.612 15.45l.03-.03.031-.032L8.527.364zM5.473 3.418L-9.612-11.667l-.03.03-.031.032L5.473 3.418zm-.946 0l15.146-15.023-.03-.031-.031-.031L4.527 3.418zM1.473.364l-15.146 15.023.03.031.031.031L1.473.364zm-.946 0l15.13 15.04.008-.008.008-.009L.527.364zm-.194.47h-21.334H.333zm.194.47l-15.13 15.04.022.023.023.022L.527 1.304zm3.06 3.06L-11.498 19.45l.01.01L3.586 4.364zM5 4.95v21.333V4.95zm1.413-.585L21.49 19.46l.01-.01L6.412 4.364zm3.06-3.06L24.558 16.39l.023-.022.022-.023-15.13-15.04zM24.62-14.659a21.998 21.998 0 00-7.16-4.815L1.053 19.91a20.665 20.665 0 01-6.725-4.524L24.62-14.659zm-7.16-4.815A22 22 0 009-21.166V21.5c-2.728 0-5.43-.54-7.948-1.59l16.409-39.384zM9-21.166a22 22 0 00-8.46 1.692L16.947 19.91A20.667 20.667 0 019 21.5v-42.667zM.54-19.474a21.999 21.999 0 00-7.16 4.815l30.293 30.046a20.666 20.666 0 01-6.725 4.524L.539-19.474zm-7.098 4.753l-3.054 3.054 30.17 30.17 3.054-3.054-30.17-30.17zm-3.115 3.116a20.667 20.667 0 016.725-4.524l16.409 39.385a22 22 0 007.159-4.816L-9.673-11.605zm6.725-4.524A20.667 20.667 0 015-17.72v42.667a22 22 0 008.46-1.692L-2.947-16.129zM5-17.72c2.728 0 5.43.54 7.948 1.59L-3.461 23.256A22 22 0 005 24.948v-42.667zm7.948 1.59a20.668 20.668 0 016.725 4.524L-10.62 18.44a22 22 0 007.16 4.815l16.408-39.385zm6.664 4.462l-3.054-3.054-30.17 30.17 3.054 3.054 30.17-30.17zM16.62-14.66a21.998 21.998 0 00-7.16-4.815L-6.947 19.91a20.668 20.668 0 01-6.725-4.524L16.62-14.659zm-7.16-4.815A22 22 0 001-21.166V21.5c-2.728 0-5.43-.54-7.948-1.59L9.461-19.473zM1-21.166a22 22 0 00-8.46 1.692L8.947 19.91A20.667 20.667 0 011 21.5v-42.667zm-8.46 1.692a22 22 0 00-7.16 4.815l30.293 30.046a20.667 20.667 0 01-6.725 4.524L-7.461-19.474zm-7.143 4.798A22 22 0 00-21.001.834h42.667c0 5.46-2.16 10.698-6.01 14.57l-30.26-30.08zM-21.001.834a22 22 0 006.398 15.51l30.26-30.08a20.667 20.667 0 016.01 14.57h-42.668zm6.443 15.555l3.06 3.06 30.17-30.17-3.06-3.06-30.17 30.17zm3.07 3.07A23.333 23.333 0 005 26.282v-42.666a19.333 19.333 0 0113.662 5.654l-30.15 30.189zM5 26.282a23.333 23.333 0 0016.489-6.823l-30.151-30.19A19.333 19.333 0 015-16.383v42.666zm16.498-6.833l3.06-3.06-30.17-30.17-3.06 3.06 30.17 30.17zm3.105-3.105A22 22 0 0031 .834h-42.666c0-5.46 2.16-10.698 6.01-14.57l30.259 30.08zM31 .834a22 22 0 00-6.397-15.51l-30.26 30.08a20.667 20.667 0 01-6.01-14.57H31z" fill="#111028" mask="url(#path-1-inside-1_2638_2652)"/></svg>