<svg width="10" height="11" viewBox="0 0 10 11" fill="none" xmlns="http://www.w3.org/2000/svg"><g clip-path="url(#clip0_240_8951)"><path fill-rule="evenodd" clip-rule="evenodd" d="M1.128 5.258c.253-.38.76-1.072 1.45-1.664.692-.596 1.52-1.05 2.422-1.05.902 0 1.73.454 2.423 1.05a8.407 8.407 0 011.449 1.664.073.073 0 010 .084 8.406 8.406 0 01-1.45 1.664c-.692.596-1.52 1.05-2.422 1.05-.902 0-1.73-.454-2.423-1.05a8.406 8.406 0 01-1.449-1.664.073.073 0 010-.084zM5 1.625c-1.214 0-2.248.607-3.022 1.272A9.323 9.323 0 00.363 4.75a.991.991 0 000 1.1 9.324 9.324 0 001.615 1.853C2.752 8.368 3.786 8.975 5 8.975c1.214 0 2.248-.607 3.022-1.272A9.325 9.325 0 009.637 5.85a.991.991 0 000-1.1 9.324 9.324 0 00-1.615-1.853C7.248 2.232 6.214 1.625 5 1.625zm0 4.9a1.225 1.225 0 100-2.45 1.225 1.225 0 000 2.45z" fill="#24292F"/></g><defs><clipPath id="clip0_240_8951"><path fill="#fff" transform="translate(.1 .4)" d="M0 0h9.8v9.8H0z"/></clipPath></defs></svg>