<svg width="26" height="26" viewBox="0 0 26 26" fill="none" xmlns="http://www.w3.org/2000/svg"><path d="M13 1C6.373 1 1 6.508 1 13.304c0 5.436 3.438 10.048 8.206 11.675.6.114.82-.267.82-.592 0-.293-.01-1.263-.016-2.29-3.338.743-4.043-1.453-4.043-1.453-.546-1.422-1.332-1.8-1.332-1.8-1.089-.763.082-.748.082-.748 1.205.087 1.84 1.268 1.84 1.268 1.07 1.881 2.807 1.337 3.491 1.023.108-.795.42-1.338.762-1.645-2.665-.311-5.467-1.366-5.467-6.08 0-1.344.469-2.442 1.236-3.303-.124-.31-.535-1.562.117-3.256 0 0 1.007-.331 3.3 1.26A11.23 11.23 0 0113 6.95c1.02.005 2.047.141 3.006.414 2.29-1.592 3.297-1.261 3.297-1.261.653 1.694.242 2.946.118 3.256.769.861 1.235 1.959 1.235 3.302 0 4.726-2.808 5.766-5.48 6.071.43.382.814 1.13.814 2.279 0 1.646-.014 2.97-.014 3.376 0 .327.216.711.825.59C21.566 23.35 25 18.738 25 13.304 25 6.508 19.627 1 13 1z" fill="#fff"/><path d="M5.494 18.527c-.026.061-.12.08-.205.037-.087-.04-.136-.123-.108-.184.026-.063.12-.08.207-.039.087.04.136.125.106.186zm.59.54c-.057.054-.169.03-.245-.057-.078-.086-.093-.2-.035-.256.06-.054.168-.029.247.057.078.087.093.201.033.256m.406.69c-.074.053-.194.004-.269-.105-.073-.11-.073-.24.002-.293.075-.053.193-.006.268.103.074.111.074.242-.002.296m.685.8c-.065.075-.206.055-.308-.047-.105-.1-.134-.24-.068-.314.066-.075.207-.054.31.047.105.099.137.24.066.314m.885.27c-.029.097-.164.14-.3.1-.135-.043-.224-.155-.197-.253.029-.097.164-.143.301-.099.136.042.225.154.196.252m1.008.115c.003.101-.112.185-.255.187-.143.004-.26-.079-.26-.178 0-.103.112-.186.255-.189.143-.003.26.079.26.18zm.99-.039c.016.099-.083.2-.224.228-.14.026-.269-.035-.286-.133-.018-.102.083-.204.222-.23.142-.025.27.034.287.135z" fill="#fff"/></svg>