<svg width="11" height="11" viewBox="0 0 11 11" fill="none" xmlns="http://www.w3.org/2000/svg"><path fill-rule="evenodd" clip-rule="evenodd" d="M5.71.813a1.073 1.073 0 00-1.076 0L1.415 2.68a1.073 1.073 0 00-.535.928v3.739c0 .382.204.735.535.928l3.219 1.867a1.072 1.072 0 001.076 0l3.22-1.867c.33-.192.534-.546.534-.928v-3.74c0-.382-.204-.735-.535-.927L5.71.813zm-.615.796a.153.153 0 01.154 0l2.838 1.646-2.915 1.69-2.915-1.69 2.838-1.646zM1.8 4.053v3.294c0 .055.029.104.077.132l2.835 1.645V5.742L1.8 4.053zm3.832 5.07L8.467 7.48a.153.153 0 00.077-.132V4.053l-2.912 1.69v3.38z" fill="#57606A"/></svg>