<svg width="11" height="11" viewBox="0 0 11 11" fill="none" xmlns="http://www.w3.org/2000/svg"><path fill-rule="evenodd" clip-rule="evenodd" d="M1.85 1.803A1.533 1.533 0 013.382.27h5.365a.46.46 0 01.46.46v7.664a.46.46 0 01-.46.46H7.214a.46.46 0 110-.92h1.073V6.708H3.382a.613.613 0 00-.437 1.042.46.46 0 01-.658.644A1.53 1.53 0 011.85 7.32V1.803zm6.437-.613v4.598H3.382c-.218 0-.425.045-.613.127V1.803a.613.613 0 01.613-.613h4.905zM3.69 7.78v1.993a.153.153 0 00.245.123l.89-.667a.153.153 0 01.183 0l.889.667a.153.153 0 00.245-.123V7.78a.153.153 0 00-.153-.153H3.842a.153.153 0 00-.153.153z" fill="#57606A"/></svg>