<svg width="11" height="11" viewBox="0 0 11 11" fill="none" xmlns="http://www.w3.org/2000/svg"><path fill-rule="evenodd" clip-rule="evenodd" d="M5.35.422a.46.46 0 01.413.257l1.154 2.339 2.58.375a.46.46 0 01.256.784l-1.868 1.82.441 2.571a.46.46 0 01-.667.485L5.35 7.839 3.041 9.053a.46.46 0 01-.667-.484l.442-2.572-1.87-1.82a.46.46 0 01.256-.785l2.581-.374L4.937.678A.46.46 0 015.35.423zm0 1.5l-.849 1.72a.46.46 0 01-.346.25l-1.899.276 1.374 1.34a.46.46 0 01.132.406l-.324 1.891 1.698-.892a.46.46 0 01.428 0l1.698.892-.325-1.89a.46.46 0 01.133-.408L8.443 4.17l-1.898-.276a.46.46 0 01-.346-.251l-.849-1.72z" fill="#57606A"/></svg>