<svg width="11" height="11" viewBox="0 0 11 11" fill="none" xmlns="http://www.w3.org/2000/svg"><path fill-rule="evenodd" clip-rule="evenodd" d="M.871 1.647c0-.592.48-1.073 1.073-1.073h7.664c.592 0 1.073.48 1.073 1.073v7.664a1.073 1.073 0 01-1.073 1.073H1.944A1.073 1.073 0 01.871 9.31V1.647zm.92 2.912v4.752c0 .084.068.153.153.153h1.993V4.56H1.79zm2.146-.92H1.79V1.648a.153.153 0 01.153-.153h1.993V3.64zm.92.92v4.905h4.75a.153.153 0 00.154-.153V4.559H4.856zm4.904-.92H4.856V1.495h4.752a.153.153 0 01.153.153V3.64z" fill="#57606A"/></svg>