<svg width="11" height="11" viewBox="0 0 11 11" fill="none" xmlns="http://www.w3.org/2000/svg"><path fill-rule="evenodd" clip-rule="evenodd" d="M.643 1.645a.46.46 0 01.46-.46H3.71c.752 0 1.42.362 1.84.92a2.295 2.295 0 011.84-.92h2.603a.46.46 0 01.46.46v6.438a.46.46 0 01-.46.46H7.23a1.38 1.38 0 00-.976.404l-.38.38a.46.46 0 01-.65 0l-.382-.38a1.38 1.38 0 00-.976-.404H1.103a.46.46 0 01-.46-.46V1.645zm5.367 1.84a1.38 1.38 0 011.38-1.38h2.143v5.518H7.229a2.3 2.3 0 00-1.221.35l.002-4.488zm-.922 4.49l.003-3.11-.001-1.382a1.38 1.38 0 00-1.38-1.378H1.562v5.518h2.304a2.3 2.3 0 011.222.352z" fill="#57606A"/></svg>