<svg width="11" height="11" viewBox="0 0 11 11" fill="none" xmlns="http://www.w3.org/2000/svg"><g clip-path="url(#clip0_240_8948)"><path fill-rule="evenodd" clip-rule="evenodd" d="M3.69 2.372a.46.46 0 01.65.65L2.062 5.3 4.34 7.578a.46.46 0 11-.65.65L1.089 5.625a.46.46 0 010-.65L3.69 2.372zm4.02 0a.46.46 0 10-.65.65L9.338 5.3 7.06 7.578a.46.46 0 10.65.65l2.602-2.603a.46.46 0 000-.65L7.71 2.372z" fill="#24292F"/></g><defs><clipPath id="clip0_240_8948"><path fill="#fff" transform="translate(.8 .4)" d="M0 0h9.8v9.8H0z"/></clipPath></defs></svg>