<svg width="16" height="17" viewBox="0 0 16 17" fill="none" xmlns="http://www.w3.org/2000/svg"><rect y=".5" width="16" height="16" rx="3" fill="#13161B"/><path d="M6.31 9.563V7.034h1.028v4.364h-.997v-.776h-.046c-.098.245-.26.444-.485.6-.224.155-.5.232-.827.232-.286 0-.539-.063-.759-.19a1.323 1.323 0 01-.511-.56c-.123-.246-.185-.543-.185-.892V7.034h1.029v2.62c0 .276.075.496.227.659.152.162.35.244.597.244a.943.943 0 00.44-.111.895.895 0 00.35-.33c.092-.147.139-.332.139-.553zM10.452 11.477c-.422 0-.797-.07-1.125-.213a1.872 1.872 0 01-.767-.582 1.367 1.367 0 01-.272-.844 1.396 1.396 0 01.159-.673 1.5 1.5 0 01.437-.512 1.41 1.41 0 01.62-.264v-.04a1.23 1.23 0 01-.728-.457 1.32 1.32 0 01-.273-.832c-.001-.3.082-.567.25-.801.169-.235.4-.42.694-.554a2.361 2.361 0 011.005-.205c.373 0 .706.068.998.205.293.134.524.319.693.554.17.234.255.501.255.8 0 .315-.093.593-.28.833a1.228 1.228 0 01-.72.457v.04c.228.038.432.126.614.264.184.137.33.307.438.512.11.204.164.429.164.673 0 .315-.093.596-.278.844-.186.246-.441.44-.767.582a2.755 2.755 0 01-1.117.213zm0-.812c.218 0 .408-.037.569-.111a.886.886 0 00.374-.318.86.86 0 00.137-.472.882.882 0 00-.145-.491.952.952 0 00-.383-.338 1.204 1.204 0 00-.552-.123c-.208 0-.394.041-.556.123a.973.973 0 00-.387.338.862.862 0 00-.136.491.827.827 0 00.13.472c.09.134.214.24.375.315.163.076.355.114.574.114zm0-2.65a.995.995 0 00.472-.109.821.821 0 00.449-.747.83.83 0 00-.12-.437.77.77 0 00-.323-.293 1.042 1.042 0 00-.478-.105c-.183 0-.345.035-.485.105a.77.77 0 00-.324.293.81.81 0 00-.111.437.828.828 0 00.114.446.85.85 0 00.326.301c.14.072.3.108.48.108z" fill="#fff"/></svg>