<svg width="118" height="37" viewBox="0 0 118 37" fill="none" xmlns="http://www.w3.org/2000/svg"><path d="M0 4a4 4 0 014-4h39v37H4a4 4 0 01-4-4V4z" fill="#24292F"/><path d="M118 4a4 4 0 00-4-4H43v37h71a4 4 0 004-4V4z" fill="#6D96FF"/><path d="M16.755 20.25v-6.704h2.237V25H16.8v-1.984h-.12a3.575 3.575 0 01-1.267 1.53c-.577.402-1.295.603-2.155.603-.736 0-1.387-.161-1.954-.485-.562-.328-1.005-.812-1.328-1.454-.318-.641-.477-1.434-.477-2.379v-7.285h2.23v7.017c0 .78.216 1.402.649 1.864.432.463.994.694 1.685.694.418 0 .833-.105 1.245-.313a2.623 2.623 0 001.037-.948c.278-.422.415-.959.41-1.61zM27.119 25.209c-1.069 0-2.014-.184-2.834-.552-.815-.368-1.454-.875-1.916-1.521a3.66 3.66 0 01-.686-2.208 3.89 3.89 0 011.506-3.147c.467-.368.99-.601 1.566-.7v-.09a3.083 3.083 0 01-1.827-1.223c-.457-.632-.684-1.357-.679-2.178-.005-.78.202-1.476.62-2.088.422-.616 1.001-1.101 1.737-1.454.736-.353 1.573-.53 2.513-.53.93 0 1.76.18 2.49.537.736.354 1.316.838 1.738 1.455.423.611.637 1.305.642 2.08-.005.82-.239 1.546-.701 2.178a3.107 3.107 0 01-1.805 1.223v.09a3.34 3.34 0 011.544.7c.462.363.83.818 1.103 1.365a3.91 3.91 0 01.425 1.782 3.74 3.74 0 01-.7 2.208c-.463.646-1.104 1.153-1.925 1.521-.815.368-1.752.552-2.811.552zm0-1.887c.631 0 1.178-.104 1.64-.313.463-.214.82-.51 1.075-.887.253-.383.382-.83.387-1.343a2.513 2.513 0 00-.417-1.41 2.788 2.788 0 00-1.097-.961c-.462-.234-.991-.35-1.588-.35-.602 0-1.136.116-1.603.35a2.777 2.777 0 00-1.104.962 2.46 2.46 0 00-.395 1.41c-.005.511.117.959.365 1.341.254.378.614.674 1.081.888.468.209 1.02.313 1.656.313zm0-7.107c.507 0 .957-.102 1.35-.306.392-.203.7-.487.924-.85.23-.362.346-.788.351-1.275-.005-.477-.12-.895-.343-1.253a2.18 2.18 0 00-.917-.827c-.393-.2-.848-.299-1.365-.299-.527 0-.99.1-1.387.299a2.18 2.18 0 00-.917.827c-.22.358-.326.776-.321 1.253-.005.487.104.912.328 1.275.224.363.532.647.925.85.398.204.855.306 1.372.306zM62.298 13.545L58.144 25h-2.386l-4.161-11.455h2.393l2.901 8.815h.12l2.893-8.815h2.394zM64.394 25V13.545h2.23V25h-2.23zm1.126-13.222c-.388 0-.721-.13-1-.388a1.26 1.26 0 01-.41-.94c0-.367.137-.68.41-.939a1.403 1.403 0 011-.395c.387 0 .718.131.992.395.278.258.417.572.417.94 0 .362-.14.676-.418.94a1.392 1.392 0 01-.991.387zM74.56 25.231c-1.129 0-2.1-.241-2.916-.723a4.906 4.906 0 01-1.88-2.051c-.437-.885-.655-1.922-.655-3.11 0-1.173.218-2.207.656-3.102.442-.895 1.059-1.593 1.85-2.096.795-.502 1.724-.753 2.788-.753.646 0 1.273.107 1.88.32.606.215 1.15.55 1.633 1.008.482.457.862 1.051 1.14 1.782.28.726.418 1.608.418 2.647v.79H70.37v-1.67h6.92c0-.586-.12-1.106-.358-1.558a2.706 2.706 0 00-1.007-1.082c-.427-.263-.93-.395-1.506-.395-.626 0-1.173.154-1.64.463-.463.303-.82.7-1.074 1.193a3.444 3.444 0 00-.373 1.588v1.305c0 .766.134 1.417.403 1.954.273.537.653.947 1.14 1.23.488.279 1.057.418 1.708.418.423 0 .808-.06 1.156-.179.348-.124.649-.308.902-.552.254-.243.448-.544.582-.902l2.11.38a3.822 3.822 0 01-.91 1.634c-.432.462-.976.822-1.632 1.08-.652.254-1.395.381-2.23.381zM84.411 25l-3.37-11.455h2.304l2.244 8.412h.112l2.252-8.412h2.305l2.237 8.375h.112l2.23-8.375h2.304L93.777 25h-2.274l-2.327-8.27h-.171L86.678 25h-2.267zM107.84 16.342l-2.021.358a2.38 2.38 0 00-.402-.738 1.994 1.994 0 00-.731-.575c-.308-.149-.694-.223-1.156-.223-.631 0-1.158.141-1.581.425-.423.278-.634.639-.634 1.081 0 .383.142.691.425.925.284.233.741.425 1.372.574l1.82.418c1.054.243 1.839.619 2.356 1.126.517.507.776 1.165.776 1.976 0 .686-.199 1.297-.597 1.834-.392.532-.942.95-1.648 1.253-.701.303-1.514.455-2.438.455-1.283 0-2.329-.273-3.14-.82-.81-.552-1.307-1.335-1.491-2.35l2.155-.327c.134.561.41.986.828 1.275.417.283.962.425 1.633.425.731 0 1.315-.152 1.752-.455.438-.308.657-.684.657-1.126 0-.358-.135-.659-.403-.902-.264-.244-.669-.428-1.216-.552l-1.939-.425c-1.068-.244-1.859-.632-2.371-1.164-.507-.532-.76-1.205-.76-2.02 0-.677.188-1.268.566-1.775.378-.508.9-.903 1.566-1.186.666-.289 1.429-.433 2.29-.433 1.237 0 2.212.269 2.923.806.711.532 1.181 1.245 1.409 2.14z" fill="#fff"/><path fill-rule="evenodd" clip-rule="evenodd" d="M114 1H4a3 3 0 00-3 3v29a3 3 0 003 3h110a3 3 0 003-3V4a3 3 0 00-3-3zM4 0a4 4 0 00-4 4v29a4 4 0 004 4h110a4 4 0 004-4V4a4 4 0 00-4-4H4z" fill="#E4EAF1"/></svg>